HIERARCHY
ROOT Hips
{
	OFFSET 0.000000 0.000000 0.000000
	CHANNELS 6 Xposition Yposition Zposition Xrotation Yrotation Zrotation
	JOINT LeftUpLeg_virtual
	{
		OFFSET 0.000000 0.000000 0.000000
		CHANNELS 3 Xrotation Yrotation Zrotation
		JOINT LeftUpLeg
		{
			OFFSET 13.026900 -6.336304 -1.092800
			CHANNELS 3 Xrotation Yrotation Zrotation
			JOINT LeftLeg
			{
				OFFSET 0.524474 -46.096886 9.782700
				CHANNELS 3 Xrotation Yrotation Zrotation
				JOINT LeftFoot
				{
					OFFSET -0.524474 -53.427422 -12.948200
					CHANNELS 3 Xrotation Yrotation Zrotation
					JOINT LeftToeBase
					{
						OFFSET 0.192200 -14.009700 16.364100
						CHANNELS 3 Xrotation Yrotation Zrotation
						JOINT LeftToe_End
						{
							OFFSET -1.784700 -0.561700 9.474800
							CHANNELS 3 Xrotation Yrotation Zrotation
							End Site
							{
								OFFSET 0 0 0
							}
						}
					}
				}
			}
		}
	}
	JOINT RightUpLeg_virtual
	{
		OFFSET 0.000000 0.000000 0.000000
		CHANNELS 3 Xrotation Yrotation Zrotation
		JOINT RightUpLeg
		{
			OFFSET -12.883000 -6.336304 -1.092800
			CHANNELS 3 Xrotation Yrotation Zrotation
			JOINT RightLeg
			{
				OFFSET -0.524587 -46.096825 9.782800
				CHANNELS 3 Xrotation Yrotation Zrotation
				JOINT RightFoot
				{
					OFFSET 0.524587 -53.427383 -12.948300
					CHANNELS 3 Xrotation Yrotation Zrotation
					JOINT RightToeBase
					{
						OFFSET -0.192200 -14.009700 16.364100
						CHANNELS 3 Xrotation Yrotation Zrotation
						JOINT RightToe_End
						{
							OFFSET 1.784700 -0.561700 9.474800
							CHANNELS 3 Xrotation Yrotation Zrotation
							End Site
							{
								OFFSET 0 0 0
							}
						}
					}
				}
			}
		}
	}
	JOINT Spine_virtual
	{
		OFFSET 0.000000 0.000000 0.000000
		CHANNELS 3 Xrotation Yrotation Zrotation
		JOINT Spine
		{
			OFFSET 0.072000 7.257294 -0.789700
			CHANNELS 3 Xrotation Yrotation Zrotation
			JOINT Spine1
			{
				OFFSET 0.000000 12.508769 -0.658067
				CHANNELS 3 Xrotation Yrotation Zrotation
				JOINT Spine1_split
				{
					OFFSET 0.000000 12.508769 -0.658067
					CHANNELS 3 Xrotation Yrotation Zrotation
					JOINT Spine2
					{
						OFFSET 0.000000 12.508769 -0.658067
						CHANNELS 3 Xrotation Yrotation Zrotation
						JOINT Neck_virtual
						{
							OFFSET 0.000000 0.000000 0.000000
							CHANNELS 3 Xrotation Yrotation Zrotation
							JOINT Neck
							{
								OFFSET 0.000000 14.033295 7.520400
								CHANNELS 3 Xrotation Yrotation Zrotation
								JOINT Head
								{
									OFFSET 0.000000 8.198502 5.703100
									CHANNELS 3 Xrotation Yrotation Zrotation
									JOINT HeadTop_End
									{
										OFFSET 0.000000 17.760803 13.332701
										CHANNELS 3 Xrotation Yrotation Zrotation
										End Site
										{
											OFFSET 0 0 0
										}
									}
								}
							}
						}
						JOINT LeftShoulder_virtual
						{
							OFFSET 0.000000 0.000000 0.000000
							CHANNELS 3 Xrotation Yrotation Zrotation
							JOINT LeftShoulder
							{
								OFFSET 6.292450 5.785301 -0.669000
								CHANNELS 3 Xrotation Yrotation Zrotation
								JOINT LeftShoulder_split
								{
									OFFSET 6.292450 5.785301 -0.669000
									CHANNELS 3 Xrotation Yrotation Zrotation
									JOINT LeftArm
									{
										OFFSET 13.907140 -6.093903 1.965100
										CHANNELS 3 Xrotation Yrotation Zrotation
										JOINT LeftForeArm
										{
											OFFSET 34.140198 0.000000 0.000000
											CHANNELS 3 Xrotation Yrotation Zrotation
											JOINT LeftHand
											{
												OFFSET 40.960209 0.000000 0.000000
												CHANNELS 3 Xrotation Yrotation Zrotation
												End Site
												{
													OFFSET 0 0 0
												}
											}
										}
									}
								}
							}
						}
						JOINT RightShoulder_virtual
						{
							OFFSET 0.000000 0.000000 0.000000
							CHANNELS 3 Xrotation Yrotation Zrotation
							JOINT RightShoulder
							{
								OFFSET -6.292450 5.785301 -0.669000
								CHANNELS 3 Xrotation Yrotation Zrotation
								JOINT RightShoulder_split
								{
									OFFSET -6.292450 5.785301 -0.669000
									CHANNELS 3 Xrotation Yrotation Zrotation
									JOINT RightArm
									{
										OFFSET -13.907140 -6.093903 1.965100
										CHANNELS 3 Xrotation Yrotation Zrotation
										JOINT RightForeArm
										{
											OFFSET -34.140198 0.000000 0.000000
											CHANNELS 3 Xrotation Yrotation Zrotation
											JOINT RightHand
											{
												OFFSET -40.960209 0.000000 0.000000
												CHANNELS 3 Xrotation Yrotation Zrotation
												End Site
												{
													OFFSET 0 0 0
												}
											}
										}
									}
								}
							}
						}
					}
				}
			}
		}
	}
}
MOTION
Frames: 9
Frame Time: 0.03333333
-1.848592 101.685417 -5.099251 0.000000 0.000000 0.000000 31.449282 -62.547860 34.507181 -54.141072 5.539006 2.976478 36.679680 -8.505407 1.626639 6.954744 -10.876147 5.000390 4.304728 1.955150 -0.538847 0.000000 0.000000 0.000000 31.615791 -62.546194 34.773299 -38.072513 -2.650666 -15.450347 48.567501 6.510050 -3.106228 -18.986696 -12.682504 21.019228 1.859174 3.142144 -7.972325 0.000000 0.000000 0.000000 24.982969 -57.659651 28.986192 2.120409 8.035343 7.062226 11.223819 3.107088 7.293758 0.071118 -0.973410 0.146661 0.000000 0.000000 0.000000 13.203290 5.817692 7.338108 -5.920786 9.242219 12.487736 3.688826 -50.825842 -18.758298 0.000000 0.000000 0.000000 11.364040 3.270194 6.736405 -0.992741 -5.883899 -4.913654 5.654305 2.481089 -4.328056 -51.084505 -33.827738 -98.394585 3.499022 -18.309422 3.192726 0.000000 0.000000 0.000000 11.847175 3.619624 7.976989 2.713948 12.010249 17.823418 -14.784790 -3.149610 -1.234310 -48.881454 10.786119 77.328683 -3.820204 -4.446010 3.371684 0.000000 0.000000 0.000000 
-1.842731 101.727730 -4.924477 0.000000 0.000000 0.000000 31.543654 -62.528483 34.544877 -54.194204 5.529886 2.955817 36.632196 -8.443529 1.624685 7.010723 -10.901420 5.046968 4.249135 1.950953 -0.505103 0.000000 0.000000 0.000000 31.668374 -62.501026 34.776328 -38.025494 -2.652566 -15.423030 48.537503 6.500945 -3.107320 -19.007394 -12.695014 20.984679 1.857376 3.148003 -7.957697 0.000000 0.000000 0.000000 25.034105 -57.590031 28.972399 2.077553 8.042500 7.055474 11.240039 3.099808 7.286360 0.074147 -0.968789 0.149695 0.000000 0.000000 0.000000 13.211117 5.819636 7.337997 -5.877972 9.298461 12.498118 3.585657 -50.729598 -18.816565 0.000000 0.000000 0.000000 11.379791 3.266269 6.749540 -0.986776 -5.789734 -4.971156 5.754561 2.434661 -4.269432 -51.075618 -33.884507 -98.423429 3.509674 -18.297279 3.180827 0.000000 0.000000 0.000000 11.852649 3.609514 7.981831 2.711265 11.988555 17.841873 -14.667357 -3.048456 -1.178480 -48.710047 10.714514 77.322038 -3.829057 -4.431486 3.387896 0.000000 0.000000 0.000000 
-1.830190 101.802330 -4.735615 0.000000 0.000000 0.000000 31.616905 -62.450168 34.566010 -54.192504 5.530942 2.880369 36.546966 -8.301094 1.620264 7.039272 -10.910974 5.120361 4.102355 1.950156 -0.455797 0.000000 0.000000 0.000000 31.740316 -62.448467 34.808628 -38.000724 -2.722506 -15.459602 48.450333 6.506968 -3.110352 -18.911831 -12.709843 21.068526 1.711613 3.175482 -7.943788 0.000000 0.000000 0.000000 25.092652 -57.495849 28.951946 2.017460 8.052323 7.029058 11.252049 3.113349 7.264960 0.077388 -0.974108 0.149128 0.000000 0.000000 0.000000 13.235711 5.836508 7.318490 -5.668383 9.380898 12.573227 3.524646 -50.651249 -18.874050 0.000000 0.000000 0.000000 11.397142 3.277264 6.745473 -0.967638 -5.676790 -5.010079 5.838533 2.384278 -4.208396 -51.049698 -33.980481 -98.464239 3.513272 -18.341754 3.184912 0.000000 0.000000 0.000000 11.873747 3.608741 7.958869 2.706895 11.909523 17.891235 -14.610299 -2.962190 -1.176683 -48.355434 10.898110 77.285619 -3.800444 -4.381656 3.379276 0.000000 0.000000 0.000000 
-1.800171 101.881271 -4.557106 0.000000 0.000000 0.000000 31.626023 -62.318223 34.539464 -54.148521 5.567105 2.767142 36.491218 -8.096733 1.616820 7.005728 -10.899612 5.207067 4.008334 1.956802 -0.427731 0.000000 0.000000 0.000000 31.787871 -62.377003 34.830611 -37.989478 -2.827837 -15.541276 48.317301 6.532959 -3.117339 -18.761579 -12.742218 21.255952 1.512592 3.216742 -7.936928 0.000000 0.000000 0.000000 25.114196 -57.380768 28.907942 1.953505 8.060937 6.979919 11.266801 3.142624 7.232481 0.076117 -0.986467 0.147913 0.000000 0.000000 0.000000 13.276313 5.864681 7.283045 -5.309108 9.478245 12.700232 3.501018 -50.613792 -18.921810 0.000000 0.000000 0.000000 11.416537 3.300152 6.721257 -0.934804 -5.563800 -5.027000 5.879896 2.346999 -4.191077 -51.007272 -34.140858 -98.489839 3.509432 -18.443594 3.203035 0.000000 0.000000 0.000000 11.902767 3.618028 7.913476 2.706907 11.782298 17.953087 -14.581754 -2.901016 -1.207924 -47.897282 11.307974 77.252698 -3.739478 -4.306170 3.351821 0.000000 0.000000 0.000000 
-1.750376 101.943222 -4.348881 0.000000 0.000000 0.000000 31.557779 -62.151812 34.458683 -54.104398 5.620075 2.618036 36.520892 -7.890376 1.628246 6.948905 -10.883359 5.278114 4.044640 1.971991 -0.439963 0.000000 0.000000 0.000000 31.778715 -62.254599 34.797655 -37.962871 -2.947788 -15.636914 48.196451 6.557429 -3.128001 -18.676864 -12.830508 21.426966 1.469236 3.256845 -7.938448 0.000000 0.000000 0.000000 25.072588 -57.250157 28.828132 1.906796 8.055823 6.905218 11.292498 3.179793 7.190035 0.073618 -1.002932 0.148810 0.000000 0.000000 0.000000 13.329089 5.897323 7.237362 -4.843345 9.582419 12.852802 3.504394 -50.637315 -18.957725 0.000000 0.000000 0.000000 11.437175 3.328999 6.677511 -0.888918 -5.467334 -5.021204 5.874134 2.341437 -4.226128 -50.940463 -34.398984 -98.471452 3.509763 -18.587458 3.237868 0.000000 0.000000 0.000000 11.931873 3.636741 7.852461 2.714442 11.624230 18.007739 -14.539716 -2.834592 -1.246462 -47.426457 11.865622 77.242807 -3.653915 -4.205283 3.319439 0.000000 0.000000 0.000000 
-1.685217 101.969063 -4.121315 0.000000 0.000000 0.000000 31.408727 -61.967342 34.308720 -54.086311 5.673938 2.456896 36.637142 -7.729578 1.652896 6.908782 -10.894804 5.328509 4.115457 1.993095 -0.463858 0.000000 0.000000 0.000000 31.675429 -62.065328 34.663176 -37.907062 -3.061497 -15.722718 48.125827 6.554156 -3.136845 -18.705622 -13.004693 21.517765 1.620709 3.289673 -7.950879 0.000000 0.000000 0.000000 24.962397 -57.109363 28.705970 1.889464 8.026621 6.813036 11.332527 3.217571 7.139455 0.069365 -1.021069 0.147341 0.000000 0.000000 0.000000 13.386380 5.930648 7.185790 -4.319293 9.691010 13.008179 3.523945 -50.733262 -18.990899 0.000000 0.000000 0.000000 11.460390 3.359964 6.615328 -0.832045 -5.392401 -5.002266 5.851312 2.359830 -4.276327 -50.858982 -34.777346 -98.401484 3.529370 -18.773933 3.291290 0.000000 0.000000 0.000000 11.956673 3.662274 7.781210 2.725719 11.456912 18.036923 -14.445449 -2.739795 -1.304709 -47.027277 12.464784 77.268072 -3.549004 -4.088562 3.297448 0.000000 0.000000 0.000000 
-1.602122 101.952621 -3.862450 0.000000 0.000000 0.000000 31.208200 -61.775591 34.092811 -54.119858 5.758783 2.319243 36.802917 -7.601756 1.663758 6.900487 -10.939289 5.409226 4.114669 2.016258 -0.477464 0.000000 0.000000 0.000000 31.478809 -61.831524 34.418262 -37.853144 -3.135241 -15.803637 48.111607 6.542226 -3.152710 -18.752044 -13.244983 21.643435 1.749836 3.323089 -7.977541 0.000000 0.000000 0.000000 24.800127 -56.968514 28.538731 1.903312 7.969775 6.721374 11.381047 3.247543 7.084009 0.064709 -1.034128 0.150520 0.000000 0.000000 0.000000 13.440538 5.962539 7.129760 -3.777392 9.808769 13.125997 3.559986 -50.883810 -19.017791 0.000000 0.000000 0.000000 11.486905 3.389394 6.540517 -0.767220 -5.334418 -4.988721 5.825503 2.397732 -4.311693 -50.763506 -35.300279 -98.292310 3.582245 -19.022784 3.363931 0.000000 0.000000 0.000000 11.971993 3.691453 7.701171 2.734035 11.300558 18.037999 -14.295970 -2.645222 -1.343312 -46.722230 13.028124 77.334434 -3.430280 -3.935606 3.299745 0.000000 0.000000 0.000000 
-1.502942 101.915474 -3.561279 0.000000 0.000000 0.000000 31.021333 -61.602159 33.849410 -54.215986 5.908616 2.229778 37.001665 -7.475305 1.632868 6.932779 -10.999875 5.565077 4.045824 2.038317 -0.497637 0.000000 0.000000 0.000000 31.242334 -61.603955 34.105535 -37.812269 -3.159959 -15.873737 48.162321 6.545486 -3.189710 -18.696251 -13.514328 21.921856 1.726993 3.357661 -8.008566 0.000000 0.000000 0.000000 24.664278 -56.868466 28.362215 1.941867 7.888234 6.648997 11.429980 3.270260 7.024581 0.063279 -1.038431 0.154359 0.000000 0.000000 0.000000 13.484060 5.990439 7.071010 -3.254242 9.938360 13.177008 3.618076 -51.074194 -19.041174 0.000000 0.000000 0.000000 11.513046 3.417955 6.459503 -0.697292 -5.285159 -4.998548 5.789670 2.443123 -4.318012 -50.627333 -35.952234 -98.148227 3.670102 -19.330535 3.453149 0.000000 0.000000 0.000000 11.980778 3.722111 7.615130 2.733732 11.163119 18.015891 -14.121733 -2.576426 -1.360286 -46.488870 13.535820 77.415720 -3.299879 -3.699136 3.334830 0.000000 0.000000 0.000000 
-1.397030 101.878067 -3.194923 0.000000 0.000000 0.000000 30.906490 -61.484325 33.613912 -54.361373 6.146732 2.228391 37.229097 -7.320838 1.555140 6.990104 -11.057500 5.766755 3.952376 2.064487 -0.534220 0.000000 0.000000 0.000000 31.094242 -61.439498 33.837464 -37.791348 -3.150089 -15.914165 48.213875 6.578017 -3.245863 -18.560267 -13.777135 22.314624 1.654227 3.385925 -8.019792 0.000000 0.000000 0.000000 24.606636 -56.836545 28.201880 1.981547 7.797479 6.616370 11.469035 3.289826 6.968156 0.060201 -1.038938 0.152956 0.000000 0.000000 0.000000 13.515363 6.015398 7.010626 -2.749712 10.079414 13.136263 3.698456 -51.313435 -19.060188 0.000000 0.000000 0.000000 11.538777 3.446708 6.378690 -0.622471 -5.231558 -5.042989 5.764742 2.508893 -4.301122 -50.437822 -36.685520 -97.970321 3.794774 -19.703303 3.551454 0.000000 0.000000 0.000000 11.989754 3.753714 7.526181 2.726029 11.048989 17.972753 -13.940822 -2.524848 -1.376787 -46.274450 14.022697 77.489084 -3.157142 -3.386271 3.394259 0.000000 0.000000 0.000000 
